<?xml version="1.0" standalone="no"?>
<!DOCTYPE svg PUBLIC "-//W3C//DTD SVG 1.1//EN" "http://www.w3.org/Graphics/SVG/1.1/DTD/svg11.dtd" >
<svg xmlns="http://www.w3.org/2000/svg">
<metadata>Generated by IcoMoon</metadata>
<defs>
<font id="icomoon" horiz-adv-x="1024">
<font-face units-per-em="1024" ascent="960" descent="-64" />
<missing-glyph horiz-adv-x="1024" />
<glyph unicode="&#x20;" horiz-adv-x="512" d="" />
<glyph unicode="&#xe900;" glyph-name="anouncement" d="M453.078 330.73l-213.344-115.897v460.718l213.344-115.897zM712.66 519.206h68.56v-148.080h-68.56v148.080zM704.022 179.005h-101.766l-110.729 219.735h101.741zM453.078 559.653h236.563v-228.923h-236.563v228.923z" />
<glyph unicode="&#xe901;" glyph-name="app" d="M466.735 690.855l-169.202-76.349v-103.039l169.202 76.374zM522.311 687.659v-102.914l169.676-76.674 0.075-223.805 55.027-24.618v326.619zM466.735 532.214l-169.202-76.349v-171.724l169.202 76.349zM636.511 308.958l-0.075 171.774-114.125 51.482v-171.724zM490.678 308.309l-169.227-76.324 198.438-89.507 169.102 76.2z" />
<glyph unicode="&#xe902;" glyph-name="arrow" d="M462.365 360.341l135.621-135.621 105.636 105.636-135.646 135.646 106.235 106.21-358.128 40.122 40.097-358.153z" />
<glyph unicode="&#xe903;" glyph-name="arrow-double" d="M260.806 586.692h381.971v-97.671h-381.971v97.671zM560.861 488.996v205.654l203.082-205.654zM381.996 381.438h381.971v-97.621h-381.971v97.621zM463.913 381.438v-205.629l-203.107 205.629z" />
<glyph unicode="&#xe904;" glyph-name="arrow-expand" d="M338.479 645.497l412.332-412.332-52.963-52.963-412.332 412.332 52.963 52.963zM215.766 715.248v-226.127l226.102 226.127zM786.713 154.112v226.152l-226.152-226.152z" />
<glyph unicode="&#xe905;" glyph-name="arrow-shrink" d="M322.814 662.902l412.332-412.332-52.963-52.963-412.332 412.332 52.963 52.963zM493.424 439.311v226.127l-226.127-226.127zM493.474 439.361v-226.127l226.102 226.127z" />
<glyph unicode="&#xe906;" glyph-name="back" d="M721.324 437.888h-311.764l140.090 159.814-38.324 33.506-196.316-223.805 196.766-214.068 37.526 34.43-146.557 159.265h318.58z" />
<glyph unicode="&#xe907;" glyph-name="badge" d="M456.723 433.794l63.292 149.977-85.063 145.109-255.388-9.388 161.013-414.204c8.239 51.307 71.331 105.761 116.147 128.506zM527.13 444.030c73.253 0 134.797-49.26 153.797-116.471l153.672 395.354-226.601 8.414-122.364-292.889c13.258 3.545 27.139 5.593 41.495 5.593zM511.176 415.942c-88.359 0-159.939-71.631-159.939-160.014 0-88.284 71.606-159.914 159.939-159.914 88.309 0 159.939 71.631 159.939 159.914 0 88.383-71.656 160.014-159.939 160.014zM568.9 167.145l-57.724 30.385-57.724-30.385 10.986 64.24-46.713 45.54 64.515 9.313 28.887 58.548 28.862-58.548 64.515-9.313-46.663-45.54 11.060-64.24z" />
<glyph unicode="&#xe908;" glyph-name="bed" d="M279.182 337.695h64.615v-23.893h-64.615v23.893zM700.551 337.695h64.615v-23.893h-64.615v23.893zM810.082 408.752c0-29.736-24.118-53.829-53.829-53.829h-471.279c-29.711 0-53.829 24.093-53.829 53.829v0c0 29.736 24.093 53.829 53.829 53.829h471.279c29.711 0 53.829-24.093 53.829-53.829v0zM423.916 498.708c0-12.484-10.112-22.57-22.57-22.57h-147.63c-12.459 0-22.57 10.087-22.57 22.57v0c0 12.484 10.112 22.57 22.57 22.57h147.63c12.459 0 22.57-10.087 22.57-22.57v0z" />
<glyph unicode="&#xe909;" glyph-name="bell" d="M652.29 652.905c-93.577 43.243-204.53 2.447-247.773-91.13-2.896-6.192-5.318-12.558-7.465-18.925l-77.598-167.904 336.831-155.645 77.523 167.804c3.47 5.767 6.741 11.809 9.612 18.001 43.293 93.577 2.447 204.53-91.13 247.798zM692.174 168.155l-434.989 201.011 12.705 27.493 434.989-201.011-12.705-27.493zM491.103 201.325c0-26.254-21.283-47.537-47.537-47.537s-47.537 21.283-47.537 47.537c0 26.254 21.283 47.537 47.537 47.537s47.537-21.283 47.537-47.537z" />
<glyph unicode="&#xe90a;" glyph-name="box" d="M479.243 177.107l-205.978 124.835v245.002l205.978-99.868zM735.131 301.943l-205.978-124.835v269.969l205.978 99.868zM273.265 596.879l228.399 96.747 233.467-96.747-230.921-96.747z" />
<glyph unicode="&#xe90b;" glyph-name="boxes" d="M149.902 418.039h162.96v-162.935h-162.96v162.935zM327.743 418.039h162.935v-162.935h-162.935v162.935zM511.775 418.039h162.96v-162.935h-162.96v162.935zM689.616 418.039h162.935v-162.935h-162.935v162.935zM241.931 601.173h162.935v-162.96h-162.935v162.96zM419.747 601.173h162.935v-162.96h-162.935v162.96zM603.804 601.173h162.96v-162.96h-162.96v162.96z" />
<glyph unicode="&#xe90c;" glyph-name="briefcase" d="M602.406 374.497h-0.549c0.125-1.848 0.549-3.62 0.549-5.518 0-46.239-37.501-83.74-83.74-83.74s-83.715 37.501-83.715 83.74c0 1.897 0.424 3.645 0.524 5.518h-0.275v6.242h-176.118v-191.747h519.141v191.747h-175.818v-6.242zM644.9 564.022v75.401h-252.467v-75.401h-133.324v-140.64h176.118v54.004h167.18v-53.979h175.818v140.615h-133.324zM604.678 564.022h-172.048v35.204h172.048v-35.204zM518.666 318.596c29.137 0 52.73 23.594 52.73 52.706 0 1.173-0.25 2.347-0.325 3.47h0.325v75.101h-105.286v-75.101h0.2c-0.075-1.124-0.35-2.297-0.35-3.47-0.025-29.087 23.594-52.706 52.706-52.706z" />
<glyph unicode="&#xe90d;" glyph-name="bus" d="M332.636 278.349c0-27.343-22.166-49.51-49.51-49.51s-49.51 22.166-49.51 49.51c0 27.343 22.166 49.51 49.51 49.51s49.51-22.166 49.51-49.51zM845.435 278.349c0-27.343-22.166-49.51-49.51-49.51s-49.51 22.166-49.51 49.51c0 27.343 22.166 49.51 49.51 49.51s49.51-22.166 49.51-49.51zM307.894 278.349c0-13.679-11.089-24.767-24.767-24.767s-24.767 11.089-24.767 24.767c0 13.679 11.089 24.767 24.767 24.767s24.767-11.089 24.767-24.767zM820.693 278.349c0-13.679-11.089-24.767-24.767-24.767s-24.767 11.089-24.767 24.767c0 13.679 11.089 24.767 24.767 24.767s24.767-11.089 24.767-24.767zM900.738 560.552v31.459h-786.563v-143.036h10.012v-115.173h-10.012v-55.452h786.538v29.187h-12.034v35.004h12.034v47.487h-12.034v170.5h12.059zM249.796 444.979h-83.715l-31.883 115.573h115.598v-115.573zM373.957 444.979h-115.598v115.573h115.598v-115.573zM498.867 444.979h-115.573v115.573h115.573v-115.573zM623.079 444.979h-115.598v115.573h115.598v-115.573zM748.913 444.979h-115.598v115.573h115.598v-115.573zM873.074 390.051l-115.573 54.928v115.573h115.573v-170.5zM410.484 621.321h-210.023l-34.704-29.336h292.24z" />
<glyph unicode="&#xe90e;" glyph-name="cake" d="M761.621 302.941c-23.045 0-43.992 8.289-60.745 21.621-16.753-13.332-37.7-21.621-60.745-21.621-23.020 0-43.967 8.289-60.72 21.621-16.778-13.332-37.7-21.621-60.745-21.621-23.020 0-43.967 8.289-60.72 21.621-16.778-13.332-37.7-21.621-60.72-21.621-23.045 0-43.967 8.289-60.745 21.621-16.753-13.332-37.675-21.621-60.72-21.621-23.020 0-43.967 8.289-60.72 21.621v-166.505h607.274v166.53c-16.753-13.357-37.675-21.646-60.695-21.646zM192.546 120.632h652.265v-37.451h-652.265v37.451zM535.444 558.28v-60.021h-30.435v87.485zM336.506 401.112c0-33.535-27.185-60.72-60.72-60.72s-60.72 27.185-60.72 60.72c0 33.535 27.185 60.72 60.72 60.72s60.72-27.185 60.72-60.72zM457.946 401.112c0-33.535-27.185-60.72-60.72-60.72s-60.72 27.185-60.72 60.72c0 33.535 27.185 60.72 60.72 60.72s60.72-27.185 60.72-60.72zM579.436 401.112c0-33.548-27.196-60.745-60.745-60.745s-60.745 27.196-60.745 60.745c0 33.548 27.196 60.745 60.745 60.745s60.745-27.196 60.745-60.745zM700.876 401.112c0-33.535-27.185-60.72-60.72-60.72s-60.72 27.185-60.72 60.72c0 33.535 27.185 60.72 60.72 60.72s60.72-27.185 60.72-60.72zM822.316 401.112c0-33.535-27.185-60.72-60.72-60.72s-60.72 27.185-60.72 60.72c0 33.535 27.185 60.72 60.72 60.72s60.72-27.185 60.72-60.72zM275.786 461.832h485.81v-60.72h-485.81v60.72zM531.649 585.743c0 0-73.553 42.719-35.503 95.973 38.025 53.305 24.093 69.334 24.093 69.334s101.042-130.253 11.41-165.307z" />
<glyph unicode="&#xe90f;" glyph-name="calendar" d="M309.567 318.471h113.925v-113.975h-113.925v113.975zM465.112 318.471h114.025v-113.975h-114.025v113.975zM309.567 476.712h113.925v-113.95h-113.925v113.95zM465.112 476.712h114.025v-113.95h-114.025v113.95zM626.050 476.712h114v-113.95h-114v113.95zM309.567 634.904h430.507v-113.95h-430.507v113.95z" />
<glyph unicode="&#xe910;" glyph-name="camera" d="M610.096 405.456c0-54.825-44.444-99.269-99.269-99.269s-99.269 44.444-99.269 99.269c0 54.825 44.444 99.269 99.269 99.269s99.269-44.444 99.269-99.269zM661.078 596.23l-41.77 60.246h-216.989l-41.071-60.246h-135.696v-381.522h570.598v381.522h-135.072zM510.802 260.447c-80.069 0-144.984 64.914-144.984 145.009 0 80.119 64.914 145.059 144.984 145.059 80.094 0 145.084-64.939 145.084-145.059 0.025-80.094-64.989-145.009-145.084-145.009zM763.718 484.826h-81.767v48.486h81.767v-48.486z" />
<glyph unicode="&#xe911;" glyph-name="card" d="M338.479 447.7v44.666h373.458v11.235c0 23.893-19.349 43.268-43.243 43.268h-300.479c-23.893 0-43.268-19.374-43.268-43.268v-146.032c0-23.893 19.374-43.243 43.268-43.243h300.454c23.893 0 43.243 19.349 43.243 43.243v90.106h-373.433z" />
<glyph unicode="&#xe912;" glyph-name="caret" d="M702.174 483.054l-196.516-162.236-195.243 162.236v57.449l196.566-162.236 195.193 162.236z" />
<glyph unicode="&#xe913;" glyph-name="caret-2" d="M373.433 526.646h294.362l-147.206-184.332z" />
<glyph unicode="&#xe914;" glyph-name="check" d="M445.987 313.228l-156.619 164.009-53.854-54.079 210.473-219.061 361.399 364.070-56.176 56.176z" />
<glyph unicode="&#xe915;" glyph-name="clip" d="M473.576 615.293l31.749-17.288-170.123-312.425-31.749 17.288 170.123 312.425zM673.007 506.634l31.723-17.287-128.559-235.92-31.723 17.287 128.559 235.92zM559.87 484.878l31.713-17.305-135.319-247.981-31.713 17.305 135.319 247.981zM458.371 298.772l-37.501-68.759-0.674 0.375c-15.005-19.624-42.319-26.091-64.69-13.882-22.371 12.134-31.733 38.624-23.394 61.893l-0.674 0.375 37.476 68.784c-26.79-3.42-51.607-19.125-65.514-44.666-23.020-42.219-7.415-95.125 34.829-118.119 42.194-23.020 95.075-7.44 118.094 34.804 13.957 25.491 13.682 54.878 2.047 79.196zM505.384 597.977c25.217 46.289 83.19 63.366 129.504 38.15 46.264-25.242 63.341-83.19 38.1-129.504l-43.243-79.42c30.909 10.012 58.223 31.334 74.976 62.118 34.804 63.841 11.285 143.736-52.531 178.515s-143.76 11.21-178.54-52.606c-16.778-30.759-19.849-65.289-11.51-96.673l43.243 79.42z" />
<glyph unicode="&#xe916;" glyph-name="clock" d="M518.941 674.901v-45.165c104.188-6.067 187.128-92.678 187.128-198.363 0-109.581-89.157-198.763-198.738-198.763-109.606 0-198.738 89.182-198.738 198.763 0 105.686 82.916 192.296 187.078 198.363v45.165c-129.080-6.092-232.219-112.976-232.219-243.529 0-134.498 109.381-243.903 243.878-243.903 134.448 0 243.903 109.406 243.903 243.903-0.025 130.528-103.214 237.412-232.294 243.529zM495.397 586.218h23.269v-184.157h-23.269v184.157zM407.139 349.311l-10.399 20.844 110.34 55.047 10.399-20.844-110.34-55.047z" />
<glyph unicode="&#xe917;" glyph-name="connection" d="M571.322 613.157c0-46.027-37.313-83.34-83.34-83.34s-83.34 37.313-83.34 83.34c0 46.027 37.313 83.34 83.34 83.34s83.34-37.313 83.34-83.34zM420.795 313.003c0-46.041-37.324-83.365-83.365-83.365s-83.365 37.324-83.365 83.365c0 46.041 37.324 83.365 83.365 83.365s83.365-37.324 83.365-83.365zM754.131 229.663c0-46.027-37.313-83.34-83.34-83.34s-83.34 37.313-83.34 83.34c0 46.027 37.313 83.34 83.34 83.34s83.34-37.313 83.34-83.34zM668.269 219.476l-346.069 86.511 156.419 311.889 18.75-9.388-144.709-288.495 320.677-80.194z" />
<glyph unicode="&#xe918;" glyph-name="cross" d="M690.415 654.203l-171.224-171.149-171.149 171.149-66.088-65.988 171.224-171.224-171.174-171.149 65.988-66.088 171.199 171.199 171.174-171.199 66.088 66.088-171.224 171.149 171.174 171.224z" />
<glyph unicode="&#xe919;" glyph-name="delete" d="M369.138 204.271h282.528v268.97h-282.528v-268.97zM583.431 438.513h24.143v-199.437h-24.143v199.437zM498.268 438.513h24.243v-199.437h-24.243v199.437zM413.13 438.513h24.168v-199.437h-24.168v199.437zM579.736 561.4v75.575h-146.032v-75.575h-98.071v-42.269h349.539v42.269h-105.436zM555.543 561.4h-97.671v51.407h97.671v-51.407z" />
<glyph unicode="&#xe91a;" glyph-name="document" d="M418.723 705.436l-103.164-120.841v-462.141h405.216v582.981h-302.052zM672.813 266.564h-309.217v27.988h309.242v-27.988zM672.813 365.009h-309.217v27.963h309.242v-27.963zM672.813 463.979h-309.217v27.963h309.242v-27.963z" />
<glyph unicode="&#xe91b;" glyph-name="document-2" d="M569.175 291.856c0-28.129-22.803-50.933-50.933-50.933s-50.933 22.803-50.933 50.933c0 28.129 22.803 50.933 50.933 50.933s50.933-22.803 50.933-50.933zM720.8 676.324v83.889h-405.141v-655.386h405.141v340.876h-202.558v-68.934c46.913 0 84.913-38 84.913-84.913s-38-84.913-84.913-84.913c-46.888 0-84.913 38-84.913 84.913 0 42.819 31.683 78.097 72.854 83.964v116.122h214.617v45.939h-214.617v46.264h214.617v45.964h-214.617v46.264h214.617z" />
<glyph unicode="&#xe91c;" glyph-name="download" d="M709.664 522.027v-239.884h-382.995v239.884h-67.062v-306.945h517.068v306.945zM481.44 522.052v96.872h74.976v-96.872h126.933l-165.157-176.567-165.257 176.567z" />
<glyph unicode="&#xe91d;" glyph-name="edit" d="M370.811 322.565l109.93-77.498-130.453-68.285zM609.28 660.688l61.365-43.296-215.86-305.948-61.365 43.296 215.86 305.948z" />
<glyph unicode="&#xe91e;" glyph-name="eye" d="M482.139 558.879c67.636 0 122.489-54.853 122.489-122.513 0-59.097-41.845-108.407-97.521-119.942 205.978 27.738 352.585 151.425 352.585 151.425-158.766 80.219-284.924 100.717-383.37 90.88 1.922 0.1 3.845 0.15 5.817 0.15zM482.139 313.852c-67.636 0-122.489 54.878-122.489 122.513 0 59.322 42.144 108.807 98.146 120.092-203.282-29.062-281.005-188.352-281.005-188.352 109.231-52.256 214.967-63.591 309.342-54.104-1.323-0.050-2.671-0.15-3.995-0.15z" />
<glyph unicode="&#xe91f;" d="M272.45 240.14l417.593 417.593 47.207-47.207-417.593-417.593-47.207 47.207z" />
<glyph unicode="&#xe920;" d="M476.297 550.34c1.947 0.075 3.87 0.15 5.842 0.15 14.231 0 27.664-2.921 40.372-7.365l9.038 9.013c-19.2 0.325-37.825-0.050-55.252-1.798z" />
<glyph unicode="&#xe921;" d="M507.106 308.035c205.978 27.738 352.585 151.45 352.585 151.45-56.326 28.438-108.357 49.060-156.668 63.791l-98.67-98.645c-1.598-57.574-42.644-105.286-97.247-116.596z" />
<glyph unicode="&#xe922;" d="M486.134 305.613c-0.275-0.025-0.549-0.025-0.849-0.025l-0.025-0.025c0.275 0.025 0.574 0.025 0.874 0.050z" />
<glyph unicode="&#xe923;" d="M359.651 427.976c0 59.322 42.144 108.807 98.146 120.092-203.282-29.062-281.005-188.352-281.005-188.352 40.621-19.424 80.744-33.156 119.992-42.319l70.232 70.232c-4.469 12.708-7.365 26.141-7.365 40.347z" />
<glyph unicode="&#xe924;" glyph-name="facebook" d="M246.55 691.105v-517.817h293.114v197.015h-53.804v64.315l53.804 0.774c-4.569 53.754 13.707 82.366 13.707 82.366 45.765 57.25 131.651 34.305 131.651 34.305v-64.066h-20.598c-37.8 0-41.196-35.403-41.196-35.403v-17.177h61.819v-67.536h-60.695v-194.568h139.941v517.792h-517.742z" />
<glyph unicode="&#xe925;" glyph-name="filter" d="M269.869 661.768v-92.678l201.409-163.684v-206.653l101.866 88.508v118.144l201.409 163.684v92.678z" />
<glyph unicode="&#xe926;" glyph-name="find" d="M342.199 590.163c-76.899-76.824-76.899-201.534 0-278.433 76.849-76.849 201.534-76.849 278.433 0 76.849 76.899 76.849 201.609 0 278.433-76.899 76.924-201.584 76.924-278.433 0zM585.828 346.534c-57.699-57.649-151.176-57.649-208.85 0-57.649 57.699-57.649 151.176 0 208.85 57.674 57.649 151.176 57.649 208.85 0 57.624-57.674 57.674-151.151 0-208.85zM619.859 286.091l26.329 26.351 44.154-44.117-26.329-26.351-44.154 44.117zM659.095 229.55l43.694 43.694 48.955-48.955-43.694-43.694-48.955 48.955z" />
<glyph unicode="&#xe927;" glyph-name="find-2" d="M674.361 696.622h-304.124c-60.67 0-109.78-49.16-109.78-109.805v-304.149c0-60.67 49.135-109.805 109.78-109.805h304.124c60.645 0 109.805 49.16 109.805 109.805v304.124c0.025 60.67-49.16 109.83-109.805 109.83zM414.903 363.362c-48.836 48.861-48.836 128.031 0 176.817 48.761 48.836 127.956 48.836 176.767 0 48.786-48.786 48.786-127.956 0-176.817-48.811-48.761-128.006-48.761-176.767 0zM607.924 363.861l27.988-27.938-16.703-16.803-28.038 28.038 16.753 16.703zM647.197 280.121l-31.084 31.109 27.738 27.738 31.084-31.109-27.738-27.738zM597.038 451.82c0-51.791-41.985-93.776-93.776-93.776s-93.776 41.985-93.776 93.776c0 51.791 41.985 93.776 93.776 93.776s93.776-41.985 93.776-93.776z" />
<glyph unicode="&#xe928;" glyph-name="flag" d="M427.736 375.021v268.821l236.338-134.448zM377.103 643.842h50.608v-414.803h-50.608v414.803z" />
<glyph unicode="&#xe929;" glyph-name="flag-2" d="M810.831 207.567c0-12.934-129.946-23.419-290.242-23.419s-290.242 10.485-290.242 23.419c0 12.934 129.946 23.419 290.242 23.419s290.242-10.485 290.242-23.419zM515.62 671.705h27.289v-464.138h-27.289v464.138zM542.909 671.705l213.568-155.345-213.568-133.874z" />
<glyph unicode="&#xe92a;" glyph-name="food" d="M448.958 134.463h-45.415l11.36 355.656h22.695zM517.068 565.82c0-50.159-40.646-90.805-90.805-90.805-50.134 0-90.805 40.646-90.805 90.805s40.671 151.375 90.805 151.375c50.134-0.025 90.805-101.242 90.805-151.375zM448.958 134.463c0-6.136-10.161-11.11-22.695-11.11s-22.695 4.974-22.695 11.11c0 6.136 10.161 11.11 22.695 11.11s22.695-4.974 22.695-11.11zM680.528 679.020v-134.523h-14.007v134.523h-14.781v-134.523h-14.007v134.523h-14.781v-134.523h-14.007v134.523h-14.756v-182.509c3.545-3.595 7.39-6.766 11.585-9.562 8.239-5.493 17.727-9.263 27.913-10.936l-10.911-341.55c0-6.117 10.162-11.11 22.695-11.11s22.695 4.993 22.695 11.11l-10.911 341.625c10.037 1.698 19.424 5.468 27.564 10.886 3.72 2.472 7.166 5.268 10.336 8.364v183.708h-14.631z" />
<glyph unicode="&#xe92b;" glyph-name="gear" d="M798.997 417.191v93.427h-52.98c-2.671 8.539-6.117 16.728-10.187 24.568l37.451 37.451-66.063 66.063-37.451-37.451c-7.84 4.045-16.054 7.515-24.568 10.187v52.955h-93.427v-52.955c-8.564-2.671-16.778-6.142-24.568-10.187l-37.476 37.451-66.063-66.063 37.451-37.451c-4.070-7.84-7.49-16.054-10.212-24.568h-52.93v-93.427h52.93c2.721-8.564 6.142-16.778 10.212-24.568l-37.451-37.501 66.063-66.063 37.476 37.501c7.815-4.095 16.029-7.515 24.568-10.237v-52.905h93.427v52.905c8.539 2.721 16.728 6.142 24.568 10.237l37.451-37.501 66.063 66.063-37.451 37.501c4.070 7.815 7.515 16.029 10.187 24.568h52.98zM598.461 381.588c-45.44 0-82.316 36.876-82.316 82.316s36.876 82.292 82.316 82.292 82.316-36.851 82.316-82.292-36.876-82.316-82.316-82.316zM419.122 282.493v41.171h-23.369c-1.173 3.77-2.696 7.415-4.494 10.861l16.503 16.528-29.137 29.137-16.528-16.528c-3.445 1.798-7.066 3.321-10.836 4.544v23.294h-41.196v-23.319c-3.77-1.223-7.365-2.721-10.861-4.544l-16.528 16.528-29.137-29.137 16.528-16.528c-1.798-3.445-3.321-7.066-4.519-10.861h-23.294v-41.171h23.344c1.198-3.77 2.721-7.39 4.519-10.861l-16.528-16.478 29.137-29.162 16.528 16.528c3.47-1.798 7.066-3.321 10.861-4.494v-23.419h41.196v23.419c3.77 1.173 7.39 2.671 10.836 4.494l16.528-16.528 29.137 29.162-16.503 16.478c1.773 3.47 3.296 7.066 4.494 10.861h23.319zM330.664 266.814c-20.024 0-36.277 16.229-36.277 36.277s16.254 36.302 36.277 36.302c20.049 0 36.327-16.254 36.327-36.302s-16.279-36.277-36.327-36.277zM523.76 201.999v25.317h-14.306c-0.724 2.297-1.648 4.519-2.771 6.616l10.137 10.162-17.851 17.851-10.137-10.137c-2.097 1.124-4.344 2.047-6.666 2.771v14.306h-25.242v-14.306c-2.297-0.724-4.544-1.648-6.641-2.771l-10.137 10.137-17.851-17.851 10.137-10.162c-1.124-2.097-2.047-4.319-2.771-6.616h-14.331v-25.317h14.331c0.724-2.297 1.648-4.494 2.771-6.641l-10.137-10.137 17.851-17.851 10.137 10.137c2.097-1.124 4.344-1.997 6.641-2.746v-14.306h25.242v14.306c2.322 0.749 4.544 1.623 6.666 2.746l10.137-10.137 17.851 17.851-10.137 10.137c1.099 2.147 2.047 4.344 2.771 6.641h14.306zM469.556 192.387c-12.309 0-22.271 9.937-22.271 22.246 0 12.334 9.937 22.296 22.271 22.296 12.284 0 22.246-9.937 22.246-22.296 0-12.284-9.962-22.246-22.246-22.246z" />
<glyph unicode="&#xe92c;" glyph-name="globe" d="M745.492 575.432l-7.989-2.547-42.494-3.77-12.009-19.2-8.738 2.746-33.805 30.56-4.919 15.879-6.591 16.903-21.272 19.1-25.117 4.894-0.574-11.485 24.618-23.968 11.984-14.156-13.482-7.091-11.010 3.246-16.503 6.891 0.549 13.282-21.646 8.888-7.166-31.259-21.821-4.943 2.147-17.452 28.462-5.443 4.869 27.838 23.469-3.47 10.911-6.392h17.527l11.959-23.993 31.758-32.233-2.322-12.533-25.641 3.296-44.217-22.346-31.858-38.2-4.145-16.928h-11.46l-21.272 9.812-20.723-9.812 5.143-21.846 9.013 10.386 15.804 0.499-1.049-19.624 13.058-3.795 13.133-14.756 21.372 6.017 24.443-3.845 28.388-7.64 14.181-1.648 23.993-27.289 46.364-27.264-29.961-57.274-31.683-14.731-12.009-32.757-45.815-30.585-4.894-17.627c117.096 28.213 204.256 133.399 204.256 259.183-0.025 54.928-16.678 106.085-45.215 148.479zM554.519 287.462l-19.399 36.028 17.826 37.176-17.826 5.343-20.024 20.123-44.367 9.937-14.756 30.809v-18.276h-6.466l-38.25 51.857v42.594l-28.013 45.59-44.541-7.94h-29.985l-15.080 9.887 19.2 15.255-19.175-4.444c-23.144-39.548-36.627-85.387-36.627-134.498 0-147.356 119.492-266.873 266.823-266.873 11.335 0 22.495 1.024 33.506 2.322l-2.771 32.332c0 0 12.259 48.037 12.259 49.66-0.075 1.698-12.334 43.118-12.334 43.118zM356.155 607.789l47.412 6.616 21.821 11.959 24.618-7.066 39.273 2.197 13.457 21.122 19.624-3.221 47.662 4.494 13.133 14.481 18.476 12.359 26.24-3.945 9.512 1.448c-34.505 16.229-72.904 25.641-113.575 25.641-82.816 0-156.893-37.75-205.779-97.047h0.125l38 10.961zM535.095 667.311l27.264 14.98 17.502-10.087-25.342-19.3-24.193-2.422-10.886 7.041 15.654 9.787zM454.401 665.114l12.034-5.018 15.754 5.018 8.564-14.88-36.352-9.537-17.502 10.237c0.025 0 17.077 11.010 17.502 14.181z" />
<glyph unicode="&#xe92d;" glyph-name="hearth" d="M266.524 491.967c0 14.281 0 28.537 0 42.868 0.699 2.622 1.648 5.268 2.072 7.989 9.213 59.546 53.629 114.274 120.017 115.273 39.198 0.524 73.004-9.637 100.193-38.599 6.242-6.616 12.309-13.407 18.825-20.498 3.62 4.145 6.666 7.59 9.587 11.16 33.456 41.146 77.698 54.503 128.081 45.914 49.385-8.439 78.447-41.77 94.351-87.51 3.995-11.61 5.917-23.893 8.788-35.928 0-13.557 0-27.089 0-40.671-1.049-4.794-2.197-9.562-3.146-14.331-8.539-42.893-29.286-79.895-55.652-113.925-49.66-64.041-111.977-114.224-177.766-160.588-2.297-1.573-8.089-0.774-10.736 1.049-49.635 34.879-97.147 72.454-138.992 116.546-36.752 38.674-69.109 80.544-85.862 132.251-4.194 12.633-6.591 25.966-9.762 38.999z" />
<glyph unicode="&#xe92e;" glyph-name="home" d="M505.134 689.407l-284.051-210.123h87.385v-323.274h129.329v239.734h134.672v-239.734h129.305v323.274h87.385z" />
<glyph unicode="&#xe92f;" glyph-name="home-2" d="M228.449 489.87h568.101l-284.051 210.123zM292.914 489.87h47.562v-323.249h-47.562v323.249zM269.694 489.87h93.976v-47.562h-93.976v47.562zM269.694 261.696h93.976v-47.537h-93.976v47.537zM660.554 489.87h93.976v-47.562h-93.976v47.562zM660.554 261.696h93.976v-47.537h-93.976v47.537zM224.629 214.158h571.921v-47.587h-571.921v47.587zM683.724 489.87h47.562v-323.249h-47.562v323.249z" />
<glyph unicode="&#xe930;" glyph-name="hotel" d="M778.973 440.135v181.685h-180.038v-181.685h-373.383v-210.023h590.097v210.023h-36.677zM332.237 318.446h-66.662v66.687h66.662v-66.687zM495.821 318.446h-66.662v66.687h66.662v-66.687zM665.622 318.446h-66.687v66.687h66.687v-66.687zM738.027 503.502h-66.687v66.687h66.687v-66.687z" />
<glyph unicode="&#xe931;" glyph-name="idr" d="M556.042 414.769c-15.28 0-29.361-11.085-32.957-27.264-0.899-2.996-1.498-6.267-1.498-9.288v-22.42c0-3.62 0.3-6.891 1.198-10.187 3.595-14.98 16.753-25.741 32.332-25.741 23.369 0 37.126 19.449 37.126 48.211 0.025 25.716-12.533 46.688-36.202 46.688zM372.084 470.171c-11.66 0-19.175-0.899-22.77-1.798v-63.791h21.871c24.842 0 40.422 13.183 40.422 33.231 0 22.146-15.579 32.357-39.523 32.357zM512.375 710.804c-153.398 0-277.759-124.361-277.759-277.759s124.361-277.759 277.759-277.759 277.759 124.361 277.759 277.759-124.361 277.759-277.759 277.759zM417.599 294.677c-2.996 5.992-7.79 22.445-13.482 47.587-5.692 26.39-15.28 34.779-36.252 35.353h-18.576v-82.941h-36.527v199.137c13.782 2.422 34.43 4.194 55.702 4.194 29.037 0 48.811-4.794 62.293-16.154 11.060-9.288 17.352-23.369 17.352-40.422 0-26.041-17.677-43.717-36.527-50.608v-0.874c14.381-5.418 23.070-19.474 28.138-38.949 6.292-25.167 11.685-48.486 15.879-56.301h-38zM563.232 291.381c-18.276 0-33.556 7.79-41.046 19.449h-0.599v-75.451h-36.826v156.619c0 19.175-0.599 34.729-1.198 48.486h32.332l1.798-22.445h0.599c10.811 16.478 27.863 25.741 50.009 25.741 33.556 0 61.394-28.737 61.394-74.277 0-52.656-33.231-78.122-66.462-78.122z" />
<glyph unicode="&#xe932;" glyph-name="idr-2" d="M498.168 364.036c0.25 1.323 0.375 2.447 0.375 3.57 0 3.221-0.949 5.942-2.846 8.189-2.222 2.597-5.842 4.694-10.861 6.392s-11.010 2.871-17.976 3.595c-1.473 0.125-2.996 0.225-4.619 0.275-1.623 0.1-3.296 0.1-4.993 0.1-0.524 0-1.024 0-1.523 0-0.524 0-1.049-0.075-1.623-0.2l-10.286-48.336c4.17 0.3 8.813 0.824 13.857 1.698 5.043 0.924 9.962 2.147 14.781 3.72 7.565 2.497 13.532 5.468 17.901 8.938 4.319 3.62 6.916 7.64 7.815 12.059zM569.25 333.301c-1.323 1.997-3.321 3.071-6.042 3.171h-1.698c-6.741 0-13.108-1.698-19.175-5.118-2.097-1.024-3.87-2.147-5.318-3.371-1.423-1.223-2.447-2.247-3.071-2.996l-8.539-40.097c1.823-0.899 4.244-1.798 7.215-2.622 2.971-0.874 6.192-1.323 9.562-1.323 3.845 0 7.365 0.724 10.536 2.197 5.368 2.472 9.612 6.392 12.683 11.71 1.723 2.721 2.946 5.568 3.695 8.589 0.724 2.946 1.423 5.742 2.047 8.339 0.424 1.598 0.674 3.745 0.924 6.417 0.125 0.974 0.2 1.922 0.2 2.896 0 1.773-0.15 3.57-0.399 5.268-0.449 2.647-1.323 4.993-2.622 6.941zM632.291 537.532c0 0-57.424 52.181 5.218 106.11 84.688 72.904-118.319 26.116-118.319 26.116s-85.987 98.245-33.056-116.596c29.561-120.067-306.596-81.518-47.313-368.964 0 0 143.036-93.227 283.951 21.322 140.939 114.474-90.481 332.012-90.481 332.012zM592.219 325.611c0-4.344-0.524-8.988-1.498-13.857-0.624-2.497-1.473-5.668-2.447-9.562-1.024-3.895-2.671-8.139-5.018-12.683-5.842-11.060-14.431-19.3-25.691-24.742-6.242-3.096-13.008-4.669-20.298-4.669-3.121 0-6.092 0.25-8.863 0.774s-5.368 1.223-7.715 2.047l-5.917-27.888c-0.624-2.871-2.172-5.343-4.644-7.365-2.472-2.047-5.118-3.071-7.94-3.071s-5.043 1.024-6.616 3.071c-1.074 1.473-1.598 3.096-1.598 4.919 0 0.774 0.075 1.573 0.25 2.397l9.687 45.54c-1.448-2.397-3.371-4.194-5.892-5.318-1.598-0.774-3.146-1.173-4.694-1.173-3.97 0-6.491 1.873-7.54 5.618-1.598 5.418-3.47 10.162-5.593 14.231-2.147 4.095-4.394 7.59-6.766 10.511-2.322 2.946-4.544 5.343-6.616 7.215-2.072 1.848-3.77 3.246-5.118 4.12-2.347 1.698-5.792 2.547-10.311 2.547-0.624 0-1.323 0-2.047-0.050-0.724-0.075-1.498-0.15-2.247-0.275-1.473-0.125-2.846-0.225-4.17-0.35-1.298-0.125-2.472-0.25-3.47-0.325l-6.991-32.857c-0.649-2.971-2.097-5.468-4.419-7.415-2.322-1.972-4.844-2.971-7.515-2.971-2.721 0-4.819 0.974-6.317 2.871-1.074 1.398-1.623 3.046-1.698 5.018 0 0.724 0.1 1.573 0.3 2.447l23.569 111.178c0.624 2.622 1.972 4.919 3.995 6.941 2.022 1.972 4.344 3.121 6.941 3.371 0.25 0 1.673 0.125 4.369 0.35s5.992 0.325 9.987 0.325c1.848 0 3.695 0 5.568-0.075 1.897-0.050 3.745-0.15 5.568-0.3 19.1-1.448 32.282-6.466 39.573-15.030 2.971-3.371 4.968-7.39 5.967-12.059 0.524-2.297 0.774-4.594 0.774-6.966 0-2.622-0.35-5.368-0.999-8.089-2.347-10.411-8.139-19.424-17.377-27.064-2.472-1.947-5.143-3.795-7.989-5.518-2.846-1.648-5.867-3.221-9.138-4.694 3.62-3.62 7.49-8.539 11.635-14.681 4.145-6.192 7.54-13.882 10.162-23.020 0.050-0.3 0.050-0.524 0.075-0.824l12.484 58.773c0.624 2.846 2.147 5.293 4.569 7.29s5.068 2.996 7.89 2.996c2.497 0 4.469-0.774 5.942-2.322 1.473-1.573 2.297-3.42 2.422-5.618h0.2c8.289 4.244 17.028 6.392 26.166 6.392h2.047c5.493-0.275 10.187-1.798 14.081-4.644 3.62-2.597 6.292-6.142 7.989-10.686 1.673-3.845 2.671-8.214 2.846-13.058 0.1-0.524 0.1-1.099 0.1-1.723z" />
<glyph unicode="&#xe933;" glyph-name="in" d="M564.805 233.708h-239.884v382.995h239.884v67.037h-306.97v-517.068h306.97zM674.286 461.882h115.373v-75.001h-115.373v-126.933l-176.567 165.182 176.567 165.257zM497.744 683.739h67.087v-188.352h-67.087v188.352zM497.744 354.174h67.087v-188.377h-67.087v188.377z" />
<glyph unicode="&#xe934;" glyph-name="in-2" d="M305.248 299.696h480.616v-124.835h-480.616v124.835zM405.665 680.693l-144.435-155.47 200.236-186.005h175.019l63.391 68.185-294.212 273.29zM558.938 380.814l-108.981-1.573-0.3 18.625 77.797 1.148-76.524 84.738 13.857 12.459 78.147-86.536 7.315 78.896 18.576-1.748-9.887-106.010z" />
<glyph unicode="&#xe935;" glyph-name="instagram" d="M643.502 529.542c14.731-0.399 27.064 11.834 27.164 26.89 0.1 15.679-11.16 26.939-26.715 26.89-15.255 0-27.414-12.184-27.164-27.014 0.35-13.982 12.733-26.44 26.715-26.765zM524.259 322.041c64.29-0.050 115.198 50.858 114.998 115.173-0.15 64.365-51.108 115.023-115.473 114.799-63.891-0.375-114.174-50.733-114.449-114.599-0.25-64.315 50.558-115.373 114.923-115.373zM524.059 511.891c40.896 0.125 75.176-34.055 75.176-74.926-0.050-40.871-34.38-75.001-75.201-74.851-40.422 0.2-74.302 33.93-74.552 74.327-0.35 40.921 33.656 75.351 74.577 75.451zM405.316 217.529c39.173-5.193 79.046-4.744 118.644-6.841 0 1.398 0.075 2.696 0.1 4.12 34.754 0 69.533-1.124 104.238 0.2 66.263 2.547 116.147 51.582 117.82 117.82 1.698 69.458 1.698 138.992 0 208.475-1.573 65.688-50.958 115.648-116.646 117.47-69.833 1.897-139.891 1.798-209.773 0.025-65.738-1.673-115.423-51.282-117.096-116.971-1.873-69.858-1.723-139.866 0-209.724 1.448-60.62 42.619-106.684 102.715-114.574zM343.098 537.707c2.497 57.699 38.999 80.044 90.93 81.892 30.21 1.024 60.52 0.15 90.78 0.15 0-0.225 0-0.524 0-0.699 33.056 0 66.462 2.622 99.244-0.599 53.729-5.318 78.022-27.039 81.093-80.469 3.945-67.161 3.845-134.972-0.050-202.233-2.971-52.531-26.715-76.374-78.896-79.445-67.236-3.945-135.047-3.995-202.233-0.275-53.23 2.971-77.273 26.615-80.369 79.42-3.97 67.211-3.271 134.922-0.499 202.258z" />
<glyph unicode="&#xe936;" glyph-name="key" d="M541.486 424.007v121.74h73.478v55.102h-73.478v38.574h73.478v55.102h-73.478v19.225h-55.127v-291.291c-66.412-14.581-116.122-73.678-116.122-144.435 0-81.767 66.238-148.005 147.98-148.005 81.717 0 148.005 66.213 148.005 148.005 0.025 73.778-54.054 134.822-124.736 145.983zM518.242 198.529c-25.941 0-46.938 21.022-46.938 46.938 0 25.941 21.022 46.988 46.938 46.988 25.941 0 46.938-21.047 46.938-46.988 0-25.916-20.997-46.938-46.938-46.938z" />
<glyph unicode="&#xe937;" glyph-name="key-2" d="M574.642 407.029v330.589h-69.533v-46.314h-78.097v-69.533h78.097v-46.738h-78.097v-69.558h78.097v-81.293c-82.941 0-150.177-67.211-150.177-150.177 0-82.916 67.211-150.177 150.177-150.177 82.916 0 150.177 67.236 150.177 150.177 0 57.824-32.757 107.908-80.644 133.025zM505.109 176.882c-34.48 0-62.443 27.938-62.443 62.418s27.963 62.418 62.443 62.418c34.455 0 62.418-27.938 62.418-62.418s-27.963-62.418-62.418-62.418z" />
<glyph unicode="&#xe938;" glyph-name="like" d="M652.34 489.221c16.778 0 32.407-0.974 47.837 0.225 21.022 1.673 40.122-2.072 57.399-14.406 1.723-1.223 3.745-2.097 5.717-2.996 7.49-3.495 10.237-8.888 10.187-17.502-0.35-70.008-0.25-139.916-0.075-209.923 0.025-6.317-1.997-10.786-6.716-14.88-14.181-12.409-27.888-25.441-42.319-37.501-3.87-3.246-9.812-5.668-14.781-5.717-51.757-0.424-103.514-0.399-155.27-0.025-4.819 0.025-10.336 2.247-14.331 5.118-13.307 9.612-25.516 20.922-39.373 29.636-5.468 3.47-14.156 2.347-21.372 2.347-14.781-0.075-29.561-0.924-44.342-1.248-9.662-0.225-9.662-0.075-9.687-9.937-0.025-19.874-0.424-20.273-20.698-20.273-42.419 0-84.838 0-127.257 0-11.884 0-16.378 4.394-16.528 16.353-0.15 12.708-0.025 25.416-0.025 38.1 0 68.060-0.025 136.121 0.050 204.181 0 3.296 0.524 6.616 1.049 9.887 1.099 6.816 5.767 9.787 12.109 9.787 46.963 0.125 93.926 0.075 140.889 0.050 6.641 0 10.212-3.47 10.361-10.137 0.1-5.243 0.2-10.511 0-15.804-0.175-4.494 1.922-6.342 6.092-5.493 26.74 5.493 50.508 17.227 67.112 39.049 8.763 11.51 13.432 26.19 19.674 39.548 15.405 32.932 30.685 65.988 45.989 98.97 4.12 8.813 8.364 17.552 12.334 26.465 3.121 6.991 7.44 10.561 15.929 10.237 19.175-0.674 38.324-0.175 57.524-0.2 7.64 0 12.209-3.296 12.284-10.761 0.15-16.478-0.3-32.982-1.173-49.435-0.275-5.093-2.172-10.261-4.294-14.98-5.218-11.385-4.219-23.369-4.244-35.278-0.050-17.427-0.050-34.904-0.050-53.455z" />
<glyph unicode="&#xe939;" glyph-name="link" d="M447.835 610.735c24.742 24.418 49.485 48.836 74.177 73.278 22.046 21.846 43.168 44.691 66.138 65.489 49.46 44.716 107.134 57.424 169.626 34.28 60.995-22.57 97.022-68.285 106.26-132.975 7.44-51.832-7.89-97.846-44.267-135.197-55.652-57.225-112.102-113.75-169.377-169.352-56.226-54.628-151.251-59.996-209.574-13.482-21.322 17.003-24.543 36.352-9.937 59.546 17.727 28.138 42.144 34.729 72.13 19.499 30.685-15.604 60.545-10.786 85.063 13.782 52.706 52.706 105.586 105.236 158.092 158.166 22.371 22.595 25.342 56.226 8.239 81.193-17.727 25.891-49.909 36.152-77.972 23.869-8.089-3.57-15.854-9.038-22.246-15.205-26.091-25.292-51.732-51.008-77.148-76.974-5.767-5.917-10.112-7.59-18.326-3.92-34.929 15.48-71.656 20.373-109.705 15.305-0.399 0.874-0.774 1.798-1.173 2.696zM565.754 260.672c-33.456-33.331-66.587-66.987-100.493-99.843-17.851-17.302-35.229-36.052-55.951-49.285-102.29-65.264-236.763-0.524-250.869 119.867-5.917 50.683 8.464 95.649 43.817 132.126 52.88 54.603 106.634 108.407 161.187 161.312 56.276 54.603 149.977 59.946 209.624 13.657 21.721-16.878 24.867-37.401 9.263-60.47-18.576-27.439-40.596-33.456-70.382-19.3-34.255 16.229-60.87 11.959-87.659-14.731-49.31-49.135-98.57-98.295-147.58-147.705-21.072-21.222-25.092-52.681-10.736-77.323 15.080-25.841 43.892-38.874 72.779-30.060 11.735 3.62 23.070 11.46 32.183 19.924 23.269 21.621 45.016 44.816 67.786 66.987 2.796 2.721 9.113 5.093 12.109 3.77 36.552-15.929 74.502-21.347 114.923-18.925z" />
<glyph unicode="&#xe93a;" glyph-name="loading" d="M572.995 495.737l146.207 183.084h-417.25l146.207-183.109v-156.319l-146.207-183.084h417.25l-146.207 183.109v156.319zM630.669 640.197l-82.991-103.913c-9.363 2.147-21.322 5.717-36.652 11.909-21.671 8.788-39.648 8.838-52.431 6.741l-68.11 85.288h240.183zM588.249 251.684c-17.227-3.396-44.367-5.243-77.223 5.668-24.992 8.289-48.636 9.088-67.561 7.59l67.112 83.989 77.673-97.247z" />
<glyph unicode="&#xe93b;" glyph-name="location" d="M514.647 684.413c-102.59 0-185.78-83.19-185.78-185.88 0-26.44 5.618-51.507 15.579-74.277h-0.125l0.375-0.524c6.941-15.854 16.004-30.685 26.939-43.842l147.181-239.434 143.411 245.352c9.637 12.484 17.727 26.141 23.893 40.871l0.025 0.050c9.263 22.046 14.431 46.314 14.431 71.78 0 102.715-83.24 185.905-185.93 185.905zM514.647 411.149c-16.753 0-32.332 5.218-45.24 14.056-20.947 14.406-34.679 38.474-34.679 65.813 0 44.142 35.803 79.945 79.92 79.945 44.217 0 79.945-35.828 79.945-79.945 0-26.964-13.457-50.708-33.88-65.164-13.058-9.263-28.862-14.706-46.064-14.706z" />
<glyph unicode="&#xe93c;" glyph-name="lock" d="M664.923 495.113v83.39c0 77.922-63.416 141.314-141.339 141.314-77.947 0-141.339-63.391-141.339-141.314v-83.39h-81.692v-369.338h179.488c14.456-1.947 29.211-2.946 43.543-2.946s29.087 0.999 43.518 2.946h179.488v369.338h-81.667zM523.585 255.254c-43.118 0-78.047 34.929-78.047 78.072 0 43.118 34.929 78.072 78.047 78.072s78.047-34.954 78.047-78.072c0-43.143-34.954-78.072-78.047-78.072zM619.234 495.113h-191.298v83.39c0 52.681 42.918 95.624 95.649 95.624 52.706 0 95.649-42.943 95.649-95.624v-83.39z" />
<glyph unicode="&#xe93d;" glyph-name="mail" d="M509.229 374.547c-88.009 75.475-174.919 149.977-265.125 227.325 11.884 3.47 20.848 8.289 29.811 8.339 156.843 0.474 313.661 0.474 470.505 0 9.088-0.050 18.151-4.819 30.135-8.214-90.381-77.473-177.541-152.199-265.325-227.45zM441.019 394.745c23.045-20.099 45.19-39.448 68.16-59.497 22.52 19.624 44.941 39.148 68.235 59.497 64.615-55.402 129.030-110.704 193.944-166.381-9.113-9.512-19.599-11.21-30.909-11.21-99.918 0.1-199.862 0.1-299.78 0.1-54.478 0-108.931-0.399-163.41 0.25-9.987 0.2-19.974 4.244-29.936 6.541-0.075 1.423-0.15 2.921-0.25 4.419 64.34 55.152 128.705 110.355 193.944 166.281zM783.617 250.111c-63.691 54.129-125.909 107.034-189.001 160.688 63.067 54.853 125.335 109.081 189.001 164.483 0-108.807 0-216.015 0-325.171zM234.341 249.711c0 109.456 0 216.465 0 325.82 63.916-55.577 126.383-109.83 189.525-164.758-63.142-53.679-125.385-106.535-189.525-161.063z" />
<glyph unicode="&#xe93e;" glyph-name="menu" d="M242.48 668.285h556.242v-108.207h-556.242v108.207zM242.48 306.536h556.242v-108.182h-556.242v108.182zM242.555 487.423h556.117v-108.232h-556.117v108.232z" />
<glyph unicode="&#xe93f;" glyph-name="menu-2" d="M163.509 762.51h291.291v-291.316h-291.291v291.316zM561.435 762.51h291.291v-291.316h-291.291v291.316zM163.509 372.225h291.291v-291.266h-291.291v291.266zM561.435 372.225h291.291v-291.266h-291.291v291.266z" />
<glyph unicode="&#xe940;" glyph-name="menu-3" d="M271.792 657.224h120.591v-120.566h-120.591v120.566zM617.885 657.224h120.591v-120.566h-120.591v120.566zM444.814 657.224h120.591v-120.566h-120.591v120.566zM271.792 494.014h120.591v-120.616h-120.591v120.616zM617.885 494.014h120.591v-120.616h-120.591v120.616zM444.814 494.014h120.591v-120.616h-120.591v120.616zM271.792 330.755h120.591v-120.566h-120.591v120.566zM617.885 330.755h120.591v-120.566h-120.591v120.566zM444.814 330.755h120.591v-120.566h-120.591v120.566z" />
<glyph unicode="&#xe941;" glyph-name="menu-4" d="M271.792 466.426h466.685v-63.491h-466.685v63.491zM271.792 617.152h466.685v-63.491h-466.685v63.491zM271.792 315.699h466.685v-63.491h-466.685v63.491z" />
<glyph unicode="&#xe942;" glyph-name="menu-5" d="M541.586 602.471c0-20.132-16.32-36.452-36.452-36.452s-36.452 16.32-36.452 36.452c0 20.132 16.32 36.452 36.452 36.452s36.452-16.32 36.452-36.452zM541.586 429.449c0-20.132-16.32-36.452-36.452-36.452s-36.452 16.32-36.452 36.452c0 20.132 16.32 36.452 36.452 36.452s36.452-16.32 36.452-36.452zM541.586 256.378c0-20.132-16.32-36.452-36.452-36.452s-36.452 16.32-36.452 36.452c0 20.132 16.32 36.452 36.452 36.452s36.452-16.32 36.452-36.452z" />
<glyph unicode="&#xe943;" glyph-name="menu-6" d="M346.818 464.603h337.655v-63.491h-337.655v63.491zM282.303 615.329h466.685v-63.491h-466.685v63.491zM409.86 313.877h211.546v-63.491h-211.546v63.491z" />
<glyph unicode="&#xe944;" glyph-name="minus" d="M290.892 466.775h454.676v-93.352h-454.676v93.352z" />
<glyph unicode="&#xe945;" glyph-name="mirror" d="M470.679 216.43l-208.201-77.298v552.971l208.201-81.717zM544.757 216.43l208.176-77.298v552.971l-208.176-81.717z" />
<glyph unicode="&#xe946;" glyph-name="moon" d="M725.868 242.821c-151.65 0-274.613 122.963-274.613 274.613 0 73.478 29.037 140.090 76.075 189.4-137.868-14.656-245.302-131.277-245.302-273.040 0-151.65 122.938-274.588 274.613-274.588 78.172 0 148.529 32.807 198.513 85.213-9.612-0.999-19.399-1.598-29.286-1.598z" />
<glyph unicode="&#xe947;" glyph-name="out" d="M564.805 243.619h-239.884v382.97h239.884v67.087h-306.97v-517.093h306.97zM613.117 398.365h-115.373v75.001h115.373v126.933l176.567-165.157-176.567-165.257zM497.744 693.676h67.087v-188.377h-67.087v188.377zM497.744 364.061h67.087v-188.377h-67.087v188.377z" />
<glyph unicode="&#xe948;" glyph-name="out-2" d="M242.88 306.611h480.616v-124.835h-480.616v124.835zM623.079 687.634l-294.187-273.29 63.366-68.21h175.044l200.236 186.030-144.46 155.47zM561.834 386.256l-3.645 79.146-82.067-82.841-13.258 13.083 80.369 81.093-77.673 4.719 1.148 18.6 108.807-6.616 4.968-106.335-18.65-0.849z" />
<glyph unicode="&#xe949;" glyph-name="out-3" d="M689.017 714.873h-306.321l190.224-190.224v-222.332h116.097zM325.87 714.873v-412.556l190.224-190.224v412.556z" />
<glyph unicode="&#xe94a;" glyph-name="out-4" d="M701.051 754.87v0h-374.656v-499.367h22.62v476.746h329.416v-476.746h22.62v476.746zM483.338 101.831l-134.323 171.324v476.746l134.323-171.299z" />
<glyph unicode="&#xe94b;" glyph-name="paper-plane" d="M212.695 595.006h595.19l-272.241-158.466zM595.79 265.715l-146.607 90.631-141.513-98.146-94.975 336.806 297.608-183.658z" />
<glyph unicode="&#xe94c;" glyph-name="parent" d="M595.090 247.789c-10.386 0.974-23.569 1.074-36.227 3.745-29.361 6.142-49.335 25.691-65.289 49.684-8.139 12.234-15.055 25.267-22.62 37.85-6.342 10.586-14.556 18.476-27.838 18.925-15.105 0.499-24.068-7.665-25.017-22.92-1.074-17.202 2.322-33.506 10.461-48.711 2.122-3.995 4.419-7.94 6.267-12.084 4.943-10.936 3.221-17.901-8.089-21.796-13.507-4.644-27.738-7.265-41.795-10.037-9.862-1.947-19.899-2.671-29.861-3.945-0.375-0.974-0.724-1.897-1.099-2.821 3.92-3.071 7.515-6.866 11.859-9.013 19.3-9.512 39.673-16.279 61.045-18.326 22.346-2.097 44.866-1.848 67.236-3.62 9.662-0.774 19.824-2.497 28.612-6.392 30.010-13.357 36.327-46.763 13.957-70.857-15.13-16.328-34.879-23.993-56.201-26.34-67.711-7.265-128.556 12.234-180.986 54.029-36.926 29.511-49.385 71.206-43.767 117.969 5.318 44.142 25.441 82.891 44.866 121.864 13.832 27.738 26.615 56.076 46.464 80.419 22.346 27.364 50.708 41.595 86.411 41.395 53.804-0.3 107.633-0.674 161.462 0.15 38.175 0.574 68.26-13.807 89.832-44.916 26.141-37.6 49.16-77.248 66.412-119.717 19.25-47.437 9.887-91.18-23.244-129.854-16.204-18.975-33.631-36.777-55.127-49.934-23.694-14.481-49.26-21.447-76.649-15.405-33.805 7.465-44.042 42.095-20.997 68.085 7.041 7.94 14.106 16.004 19.924 22.57zM664.449 340.067c-0.025 40.821-33.131 74.127-73.703 74.177-40.896 0.050-74.602-33.606-74.602-74.402 0.025-40.422 33.506-73.828 74.127-73.878 41.445-0.075 74.202 32.657 74.177 74.102zM617.511 654.053c1.698-58.723-49.909-111.828-113.326-109.855-57.225 1.698-107.908 50.384-106.834 112.651 1.024 58.073 50.958 109.73 114.1 107.758 56.476-1.723 107.933-50.533 106.060-110.554z" />
<glyph unicode="&#xe94d;" glyph-name="people" d="M614.39 551.588c0-63.87-51.777-115.648-115.648-115.648s-115.648 51.777-115.648 115.648c0 63.87 51.777 115.648 115.648 115.648s115.648-51.777 115.648-115.648zM556.716 419.313c-17.028-9.787-36.777-15.604-57.874-15.654-21.122 0-40.871 5.767-57.924 15.604-44.142-21.122-97.521-69.384-98.595-179.314 0 0 68.535-76.324 156.594-82.167 88.059 5.942 156.569 82.292 156.569 82.292-1.198 109.905-54.628 158.142-98.77 179.239zM331.338 484.077c0-32.859-26.638-59.497-59.497-59.497s-59.497 26.638-59.497 59.497c0 32.859 26.638 59.497 59.497 59.497s59.497-26.638 59.497-59.497zM301.652 416.017c-8.738-5.018-18.9-8.014-29.761-8.014s-21.022 2.971-29.786 8.014c-22.695-10.886-50.159-35.703-50.708-92.228 0 0 35.254-39.248 80.569-42.244 45.29 3.046 80.519 42.294 80.519 42.294-0.649 56.525-28.113 81.343-50.833 92.178zM795.426 484.077c0-32.859-26.638-59.497-59.497-59.497s-59.497 26.638-59.497 59.497c0 32.859 26.638 59.497 59.497 59.497s59.497-26.638 59.497-59.497zM765.765 416.017c-8.763-5.018-18.925-8.014-29.761-8.014s-21.022 2.971-29.786 8.014c-22.695-10.886-50.159-35.703-50.708-92.228 0 0 35.254-39.248 80.569-42.244 45.29 3.046 80.544 42.294 80.544 42.294-0.699 56.525-28.138 81.343-50.858 92.178z" />
<glyph unicode="&#xe94e;" glyph-name="person" d="M662.676 593.608c0-82.541-66.912-149.453-149.453-149.453s-149.453 66.912-149.453 149.453c0 82.541 66.912 149.453 149.453 149.453s149.453-66.912 149.453-149.453zM588.1 422.683c-21.971-12.683-47.462-20.223-74.801-20.248-27.289 0-52.805 7.465-74.826 20.223-57.025-27.339-126.009-89.707-127.407-231.769 0 0 88.508-98.595 202.333-106.16 113.825 7.69 202.333 106.36 202.333 106.36-1.573 142.013-70.557 204.306-127.632 231.595z" />
<glyph unicode="&#xe94f;" glyph-name="person-2" d="M575.691 362.138c0-52.606 0-105.286 0-157.867 0-5.767 0.175-11.51-0.225-17.227-1.273-17.527-9.612-26.49-24.093-26.066-14.281 0.35-23.244 10.062-23.594 26.84-0.424 19.624-0.175 39.198-0.175 58.822 0 44.491 0.175 89.008-0.25 133.524-0.075 4.544-4.244 8.988-6.442 13.532-2.696-4.594-7.59-9.163-7.64-13.832-0.599-61.694-0.474-123.387-0.524-185.081 0-4.294 0.1-8.664-0.649-12.833-2.572-14.156-11.385-21.522-24.593-21.072-13.557 0.499-19.674 9.063-20.798 21.197-1.074 11.884-0.724 23.869-0.724 35.803 0.050 105.786 0.3 211.521 0.15 317.232-0.025 4.319-3.296 8.714-5.093 13.008-1.873-4.194-5.368-8.364-5.368-12.533-0.449-36.826-0.25-73.678-0.3-110.579-0.050-4.17-0.524-8.539-1.423-12.658-2.322-10.561-8.664-17.527-19.999-16.378-11.385 1.124-18.251 8.464-18.376 20.099-0.424 30.635-0.3 61.219-0.3 91.829-0.050 13.857 1.223 27.863-0.175 41.595-3.046 29.886 23.744 58.997 58.373 59.422 31.134 0.375 62.218 0.175 93.327-0.125 32.782-0.3 61.169-24.568 59.447-61.020-2.047-42.494-0.375-85.138-0.524-127.732-0.050-14.88-8.489-24.443-20.473-23.993-11.135 0.424-17.352 8.514-17.652 23.219-0.050 3.346-0.050 6.691-0.050 10.062 0.025 33.955 0.35 67.91-0.2 101.916-0.050 5.717-3.845 11.46-5.942 17.177-1.897-5.692-5.518-11.285-5.568-16.953-0.449-56.451-0.25-112.876-0.25-169.327h0.1zM475.298 663.516c-0.125 23.794 20.698 45.165 44.566 45.64 25.117 0.499 46.289-20.248 46.064-45.066-0.25-25.466-20.872-46.239-45.515-45.74-23.943 0.474-44.991 21.572-45.116 45.165z" />
<glyph unicode="&#xe950;" glyph-name="phone" d="M636.785 180.203c-40.072 1.398-74.277 12.084-106.11 29.461-102.465 55.727-181.136 134.997-232.493 240.208-13.532 27.738-21.846 57.349-21.821 88.683 0.050 14.156 5.043 26.091 15.28 36.152 20.473 20.099 40.621 40.621 60.97 60.845 14.531 14.356 29.087 12.858 38.799-4.993 17.652-32.457 34.554-65.239 51.682-98.021 6.042-11.56 3.545-22.196-4.744-31.533-6.641-7.515-13.657-14.731-21.072-21.422-6.367-5.742-8.314-12.209-4.070-19.374 11.61-19.474 21.846-40.097 36.028-57.549 23.394-28.687 50.034-54.603 82.142-73.903 6.491-3.895 13.258-7.465 20.273-10.336 13.832-5.742 17.177-4.694 27.164 6.042 6.342 6.816 12.658 13.757 19.474 20.148 11.035 10.286 25.067 11.959 38.175 4.369 30.435-17.727 60.82-35.553 90.98-53.654 16.903-10.187 18.675-24.543 4.869-38.474-21.147-21.397-42.594-42.519-64.016-63.691-9.637-9.487-21.746-12.883-31.508-12.958z" />
<glyph unicode="&#xe951;" glyph-name="photo" d="M234.066 602.047v-375.23h561.185v375.23h-561.185zM774.579 581.349v-184.582l-110.155 50.708-182.459-131.227 79.171 98.121-110.155 33.106-196.216-80.843v214.717h519.815z" />
<glyph unicode="&#xe952;" glyph-name="pin" d="M256.212 149.618l0.125 0.175h-0.125zM779.472 549.516c-0.225 0.225-0.424 0.474-0.599 0.674-0.1 0-0.2 0-0.3 0 0.1 0 0.2 0 0.3 0-6.616 7.44-13.382 15.654-20.872 23.194-28.812 29.137-57.824 58.048-86.86 86.935-15.854 15.804-27.564 15.005-41.271-2.497-39.423-50.309-78.996-100.517-118.219-151.001-4.594-5.917-9.363-7.166-16.403-6.267-57.874 7.765-106.435-10.736-148.429-53.954 26.215-26.091 51.607-51.307 77.748-77.273-55.527-72.479-111.253-145.209-168.228-219.586h2.272c74.027 56.7 146.307 112.077 219.835 168.403 25.741-26.141 51.282-52.056 77.023-78.147 41.82 41.52 61.294 90.081 52.631 148.429-1.298 8.788 1.223 13.907 8.564 19.374 50.084 37.501 99.719 75.575 149.278 113.85 5.618 4.294 9.612 10.686 13.707 15.33v13.133c-0.075 0-0.125 0-0.175 0 0-0.15 0-0.375 0-0.599z" />
<glyph unicode="&#xe953;" glyph-name="plane" d="M880.814 563.697c-48.935 26.665-97.746 18.75-145.658-2.097-40.621-17.752-80.544-37.026-120.366-56.451-10.386-5.043-18.276-4.369-28.363 0.849-49.285 25.591-99.744 48.96-148.28 75.9-33.531 18.551-66.812 29.836-105.736 23.968-23.319-3.52-47.263-3.021-70.956-4.269-0.774-1.373-1.573-2.696-2.447-4.070 58.947-57.474 117.945-114.948 178.515-173.996-39.223-18.925-74.352-36.177-109.855-52.606-4.269-2.022-11.010-0.474-15.854 1.373-32.058 11.859-63.766 24.368-95.649 36.427-4.594 1.673-10.711 4.394-14.456 2.696-24.942-10.861-49.46-22.745-75.725-35.029 24.218-30.485 47.013-59.097 70.307-88.334-16.853-28.188-9.937-46.214 20.273-55.577 5.792-1.773 11.884-3.371 17.976-3.77 62.617-4.569 122.988 5.468 180.038 32.058 147.905 68.659 295.535 137.669 443.041 206.877 10.986 5.093 21.621 11.735 30.934 19.424 31.908 26.615 28.637 56.675-7.74 76.624z" />
<glyph unicode="&#xe954;" glyph-name="play" d="M200.386 625.766v-404.891h605.502v404.891h-605.502zM460.743 296.425v253.84l147.805-126.908-147.805-126.933z" />
<glyph unicode="&#xe955;" glyph-name="plus" d="M716.006 481.006l-171.025 0.025v171h-65.963v-171.025l-171.025 0.025v-66.013h171.025v-171h65.963v171h171.025z" />
<glyph unicode="&#xe956;" glyph-name="power" d="M459.919 669.508h124.835l-62.418-153.947h114.424l-176.842-322.5 44.966 249.671-121.939-11.435z" />
<glyph unicode="&#xe957;" glyph-name="print" d="M352.71 662.517h272.616v-239.959h-272.616v239.959zM352.71 340.841h272.616v-132.351h-272.616v132.351zM745.667 579.577h-92.129v-185.206h-329.016v185.206h-67.636l-86.486-121.515v-186.804h154.122v97.771h329.016v-97.771h178.49v186.804z" />
<glyph unicode="&#xe958;" glyph-name="quote" d="M328.492 520.554c20.573 75.176 59.047 171.848 83.29 212.994l50.084 5.368c-18.825-52.805-42.968-144.984-52.805-209.424l-80.569-8.938zM647.072 738.916c-20.573-75.201-59.097-170.975-84.114-212.12l-50.084-6.242c19.674 52.78 42.918 145.908 52.78 210.323l81.418 8.039z" />
<glyph unicode="&#xe959;" glyph-name="react" d="M518.267 107.149c-79.62 0-142.063 140.914-142.063 320.777 0 179.888 62.418 320.802 142.063 320.802 79.57 0 141.988-140.914 141.988-320.802s-62.418-320.777-141.988-320.777zM518.267 718.269c-52.78 0-111.628-119.243-111.628-290.367 0-171.099 58.847-290.342 111.628-290.342s111.528 119.243 111.528 290.342c0 171.124-58.748 290.367-111.528 290.367zM341.874 230.412c-53.554 0-90.406 16.079-106.634 46.414-37.501 70.232 57.474 191.622 216.165 276.311 85.937 45.89 174.545 72.205 243.129 72.205 53.579 0 90.456-16.054 106.684-46.389 19.025-35.678 5.393-84.713-38.399-138.043-40.896-49.809-104.013-98.92-177.766-138.268-85.912-45.89-174.595-72.23-243.179-72.23zM694.534 594.931c-63.766 0-147.156-24.992-228.823-68.61-150.951-80.594-228.449-188.601-203.632-235.14 10.411-19.549 38.774-30.335 79.77-30.335 63.766 0 147.206 25.042 228.873 68.635 70.307 37.526 130.153 83.939 168.528 130.703 34.954 42.594 47.737 80.669 35.079 104.412-10.436 19.574-38.699 30.335-79.795 30.335zM694.609 230.412v0c-68.659 0.025-157.268 26.34-243.279 72.23-73.703 39.348-136.795 88.458-177.716 138.268-43.792 53.355-57.399 102.39-38.399 138.043 16.204 30.36 53.080 46.389 106.634 46.389 68.659 0 157.268-26.315 243.204-72.205 158.691-84.713 253.591-206.078 216.165-276.311-16.229-30.335-53.105-46.414-106.609-46.414zM341.874 594.931c-40.996 0-69.359-10.761-79.77-30.335-12.708-23.719 0.075-61.819 35.079-104.412 38.399-46.763 98.245-93.177 168.503-130.703 81.717-43.593 165.157-68.61 228.948-68.635v0c41.021 0 69.284 10.786 79.745 30.335 24.842 46.539-52.656 154.546-203.607 235.14-81.692 43.617-165.132 68.61-228.898 68.61zM560.062 423.807c0-23.11-18.735-41.845-41.845-41.845s-41.845 18.735-41.845 41.845c0 23.11 18.735 41.845 41.845 41.845s41.845-18.735 41.845-41.845z" />
<glyph unicode="&#xe95a;" glyph-name="refresh" d="M611.644 669.483l-37.026-61.045c69.109-27.589 117.994-95.025 117.994-173.946 0-103.514-83.889-187.428-187.403-187.428-103.489 0-187.378 83.889-187.378 187.428 0 58.373 26.69 110.479 68.535 144.884v84.139c-82.716-42.993-139.316-129.379-139.316-229.023 0-142.637 115.623-258.185 258.185-258.185s258.16 115.548 258.16 258.185c-0.025 104.562-62.343 194.419-151.75 234.99zM316.158 692.652l104.412-163.385 35.953 138.043z" />
<glyph unicode="&#xe95b;" glyph-name="refresh-2" d="M505.234 170.89c0 0-320.927 214.717-110.879 410.584l47.188-40.072 11.784 165.157-167.554-33.006 44.841-37.8c0 0-304.399-297.358 174.645-474.275zM535.993 697.097c0 0 320.952-214.742 110.904-410.584l-47.188 40.072-11.809-165.107 167.554 32.957-44.841 37.8c0 0 304.399 297.358-174.645 474.325z" />
<glyph unicode="&#xe95c;" glyph-name="remove-badge" d="M413.53 603.17l-168.603-178.49 168.603-178.49h357.004v356.979h-357.004zM620.607 335.673l-64.19 64.215-64.24-64.215-24.742 24.792 64.215 64.19-64.215 64.215 24.792 24.767 64.215-64.215 64.215 64.215 24.717-24.767-64.165-64.215 64.215-64.19-24.817-24.792z" />
<glyph unicode="&#xe95d;" glyph-name="save" d="M624.602 637.6h50.109v-136.77h-50.109v136.77zM533.946 434.842h17.901v-17.851h-17.901v17.851zM286.572 661.743v-465.237h378.576v40.197h34.005v-40.197h52.656v465.237h-465.237zM521.987 360.291c-26.39 0-47.812 21.347-47.812 47.787s21.422 47.837 47.812 47.837c26.44 0 47.862-21.397 47.862-47.837s-21.422-47.787-47.862-47.787zM701.151 481.381h-363.895v176.817h363.895v-176.817z" />
<glyph unicode="&#xe95e;" glyph-name="shrink" d="M468.133 692.278v-128.356h-226.901v-408.437h408.437v230.721h124.536v306.071h-306.071zM592.694 212.485h-294.462v294.437h294.487v-294.437zM717.229 443.206h-67.561v120.741h-124.536v71.331h192.097v-192.072z" />
<glyph unicode="&#xe95f;" glyph-name="signal" d="M462.69 431.322h76.998v-284.625h-76.998v284.625zM645.499 712.651h76.998v-565.954h-76.998v565.954zM279.906 279.098h76.998v-132.425h-76.998v132.425z" />
<glyph unicode="&#xe960;" glyph-name="talk" d="M521.862 568.966h272.191v-272.191h-272.191v272.191zM244.927 683.215h214.792v-214.817h-214.792v214.817zM369.812 468.398h-124.885l62.468-117.42zM794.028 296.749h-158.316l79.196-148.754z" />
<glyph unicode="&#xe961;" glyph-name="talk-2" d="M253.516 592.16h242.705v-242.705h-242.705v242.705zM567.202 592.16h242.705v-242.705h-242.705v242.705zM668.768 349.48h141.114l-70.582-132.65z" />
<glyph unicode="&#xe962;" glyph-name="talk-3" d="M252.392 684.538h519.116v-375.031h-519.116v375.031zM302.326 309.483h185.256l-92.653-144.684z" />
<glyph unicode="&#xe963;" glyph-name="trophy" d="M517.967 528.893v-301.028c0 0-187.678 78.047-187.678 301.028h187.678zM411.682 310.456l-14.156 3.97c-6.442 1.798-157.243 45.665-157.243 172.373v11.16h171.399v-187.503zM263.053 475.688c7.191-81.393 92.079-121.839 126.333-134.872v134.872h-126.333zM517.992 528.893v-301.028c0 0 187.678 78.047 187.678 301.028h-187.678zM624.302 310.456v187.528h171.399v-11.16c0-126.708-150.826-170.575-157.243-172.373l-14.156-3.995zM646.573 475.688v-134.872c34.23 13.108 119.118 53.679 126.358 134.872h-126.358zM517.992 142.403v117.046c0 0 72.979-30.36 72.979-117.046h-72.979zM517.967 142.403v117.046c0 0-72.979-30.36-72.979-117.046h72.979zM517.992 580.9v101.291c0 0 126.259-26.265 126.259-101.291h-126.259zM517.967 580.9v101.291c0 0-126.259-26.265-126.259-101.291h126.259z" />
<glyph unicode="&#xe964;" glyph-name="tv" d="M183.558 671.455h642.902v-371.385h-642.902v371.385zM478.994 346.883h52.031v-131.077h-52.031v131.077zM402.819 215.781h204.406v-26.016h-204.406v26.016z" />
<glyph unicode="&#xe965;" glyph-name="twitter" d="M224.679 258.7c0 0 166.306-115.473 355.956-11.56 189.725 103.988 170.875 310.915 170.875 310.915s59.646 51.757 59.646 64.34c0 0-55.677-18.75-65.863-17.227 0 0 44.691 31.384 50.933 66.662 0 0-55.602-33.006-76.050-29.861 0 0-74.427 71.406-157.517 17.252 0 0-66.712-50.109-49.41-128.481 0 0-169.352 11.685-248.497 126.908 0 0-48.611-86.935 34.455-159.914 0 0-39.972 4.020-51.707 13.382 0 0-2.422-87.035 95.574-118.319 0 0-47.762-9.438-52.531-4.794 0 0 31.384-81.493 112.926-80.694 0.025-0.050-86.96-68.285-178.789-48.611z" />
<glyph unicode="&#xe966;" glyph-name="upload" d="M709.664 539.879v-239.859h-382.995v239.859h-67.062v-306.97h517.068v306.97zM554.893 460.234v-96.872h-75.001v96.872h-126.933l165.157 176.567 165.257-176.567z" />
<glyph unicode="&#xe967;" glyph-name="warning" d="M501.339 694.825l-313.112-523.934h626.199l-313.087 523.934zM501.339 502.503c19.225 0 34.829-15.604 34.829-34.829 0-19.25-15.604-34.854-34.829-34.854s-34.829 15.604-34.829 34.854c0 19.225 15.604 34.829 34.829 34.829zM529.003 224.295h-55.327v170.026h55.327v-170.026z" />
<glyph unicode="&#xe968;" glyph-name="youtube" d="M202.283 632.881v-409.51h607.549v409.51h-607.549zM450.531 352.975v151.675l111.029-75.8-111.029-75.875z" />
</font>
</defs>
</svg>
